<svg version="2" xmlns="http://www.w3.org/2000/svg" viewBox="0 0 32 32">
    <path style="fill: #9673A6" d="
        M16,-1 L13.5,11.67 L6.594,10.569 L10.189,15 H11.863 L9.614,12.313 L14.35,13.142 L16,7 L17.65,13.142 L22.386,12.313 L19.147,16 L22.386,19.687 L17.65,18.858 L16,25 L14.35,18.858 L9.614,19.687 L11.863,17 H10.189 L6.594,21.431 L13.5,20.33 L16,33 L18.5,20.33 L25.406,21.431 L21,16 L25.406,10.569 L18.5,11.67 z
        M-1,16 L8.6,14.274 L10,16 L8.6,17.726 z
        M33,16 L23.4,14.274 L22,16 L23.4,17.726 z
        M21.36,8.82 L24.26,3.62 L22.63,2.62 L19.63,7.82 z
        M19.64,24.4 L22.64,29.6 L24.37,28.6 L21.37,23.4 z
        M12.37,7.82 L9.37,2.62 L7.74,3.62 L10.64,8.82 z
        M10.63,23.4 L7.63,28.6 L9.36,29.6 L12.36,24.4 z
    "></path>
</svg>
